<svg width="378" height="328" viewBox="0 0 378 328" xmlns="http://www.w3.org/2000/svg" role="img" aria-label="Most Used Languages">
  <rect width="378" height="328" rx="18" fill="#0D1F0D"/>
  <text x="28" y="34" font-family="-apple-system,BlinkMacSystemFont,'Segoe UI',Helvetica,Arial,sans-serif" font-size="18" font-weight="700" fill="#4ec9b0" letter-spacing="0.2">Most Used Languages</text>
  
  <circle cx="34" cy="68" r="6" fill="#f1e05a"/>
  <text x="52" y="73" font-family="-apple-system,BlinkMacSystemFont,'Segoe UI',Helvetica,Arial,sans-serif" font-size="14" font-weight="600" fill="#b5cea8">JavaScript</text>
  <rect x="152" y="65" width="160" height="7" rx="3" fill="#1a3a1a"/>
  <rect x="152" y="65" width="100.2" height="7" rx="3" fill="#f1e05a" opacity="0.8"/>
  <text x="326" y="73" font-family="-apple-system,BlinkMacSystemFont,'Segoe UI',Helvetica,Arial,sans-serif" font-size="13" font-weight="600" fill="#b5cea8" text-anchor="start">62.6%</text>
  <circle cx="34" cy="100" r="6" fill="#5686a5"/>
  <text x="52" y="105" font-family="-apple-system,BlinkMacSystemFont,'Segoe UI',Helvetica,Arial,sans-serif" font-size="14" font-weight="600" fill="#b5cea8">GLSL</text>
  <rect x="152" y="97" width="160" height="7" rx="3" fill="#1a3a1a"/>
  <rect x="152" y="97" width="13.3" height="7" rx="3" fill="#5686a5" opacity="0.8"/>
  <text x="326" y="105" font-family="-apple-system,BlinkMacSystemFont,'Segoe UI',Helvetica,Arial,sans-serif" font-size="13" font-weight="600" fill="#b5cea8" text-anchor="start">8.3%</text>
  <circle cx="34" cy="132" r="6" fill="#b07219"/>
  <text x="52" y="137" font-family="-apple-system,BlinkMacSystemFont,'Segoe UI',Helvetica,Arial,sans-serif" font-size="14" font-weight="600" fill="#b5cea8">Java</text>
  <rect x="152" y="129" width="160" height="7" rx="3" fill="#1a3a1a"/>
  <rect x="152" y="129" width="12.0" height="7" rx="3" fill="#b07219" opacity="0.8"/>
  <text x="326" y="137" font-family="-apple-system,BlinkMacSystemFont,'Segoe UI',Helvetica,Arial,sans-serif" font-size="13" font-weight="600" fill="#b5cea8" text-anchor="start">7.5%</text>
  <circle cx="34" cy="164" r="6" fill="#3572A5"/>
  <text x="52" y="169" font-family="-apple-system,BlinkMacSystemFont,'Segoe UI',Helvetica,Arial,sans-serif" font-size="14" font-weight="600" fill="#b5cea8">Python</text>
  <rect x="152" y="161" width="160" height="7" rx="3" fill="#1a3a1a"/>
  <rect x="152" y="161" width="10.6" height="7" rx="3" fill="#3572A5" opacity="0.8"/>
  <text x="326" y="169" font-family="-apple-system,BlinkMacSystemFont,'Segoe UI',Helvetica,Arial,sans-serif" font-size="13" font-weight="600" fill="#b5cea8" text-anchor="start">6.6%</text>
  <circle cx="34" cy="196" r="6" fill="#563d7c"/>
  <text x="52" y="201" font-family="-apple-system,BlinkMacSystemFont,'Segoe UI',Helvetica,Arial,sans-serif" font-size="14" font-weight="600" fill="#b5cea8">CSS</text>
  <rect x="152" y="193" width="160" height="7" rx="3" fill="#1a3a1a"/>
  <rect x="152" y="193" width="9.9" height="7" rx="3" fill="#563d7c" opacity="0.8"/>
  <text x="326" y="201" font-family="-apple-system,BlinkMacSystemFont,'Segoe UI',Helvetica,Arial,sans-serif" font-size="13" font-weight="600" fill="#b5cea8" text-anchor="start">6.2%</text>
  <circle cx="34" cy="228" r="6" fill="#000080"/>
  <text x="52" y="233" font-family="-apple-system,BlinkMacSystemFont,'Segoe UI',Helvetica,Arial,sans-serif" font-size="14" font-weight="600" fill="#b5cea8">Lua</text>
  <rect x="152" y="225" width="160" height="7" rx="3" fill="#1a3a1a"/>
  <rect x="152" y="225" width="5.6" height="7" rx="3" fill="#000080" opacity="0.8"/>
  <text x="326" y="233" font-family="-apple-system,BlinkMacSystemFont,'Segoe UI',Helvetica,Arial,sans-serif" font-size="13" font-weight="600" fill="#b5cea8" text-anchor="start">3.5%</text>
  <circle cx="34" cy="260" r="6" fill="#f34b7d"/>
  <text x="52" y="265" font-family="-apple-system,BlinkMacSystemFont,'Segoe UI',Helvetica,Arial,sans-serif" font-size="14" font-weight="600" fill="#b5cea8">C++</text>
  <rect x="152" y="257" width="160" height="7" rx="3" fill="#1a3a1a"/>
  <rect x="152" y="257" width="5.3" height="7" rx="3" fill="#f34b7d" opacity="0.8"/>
  <text x="326" y="265" font-family="-apple-system,BlinkMacSystemFont,'Segoe UI',Helvetica,Arial,sans-serif" font-size="13" font-weight="600" fill="#b5cea8" text-anchor="start">3.3%</text>
  <circle cx="34" cy="292" r="6" fill="#89e051"/>
  <text x="52" y="297" font-family="-apple-system,BlinkMacSystemFont,'Segoe UI',Helvetica,Arial,sans-serif" font-size="14" font-weight="600" fill="#b5cea8">Shell</text>
  <rect x="152" y="289" width="160" height="7" rx="3" fill="#1a3a1a"/>
  <rect x="152" y="289" width="4" height="7" rx="3" fill="#89e051" opacity="0.8"/>
  <text x="326" y="297" font-family="-apple-system,BlinkMacSystemFont,'Segoe UI',Helvetica,Arial,sans-serif" font-size="13" font-weight="600" fill="#b5cea8" text-anchor="start">2.1%</text>
</svg>