<svg width="400" height="444" viewBox="0 0 400 444"
     xmlns="http://www.w3.org/2000/svg" role="img"
     aria-label="Most Used Languages">

  <rect width="400" height="444" rx="20" fill="#0D1F0D"/>

  <text x="26" y="36"
        font-family="-apple-system,BlinkMacSystemFont,'Segoe UI',Helvetica,Arial,sans-serif" font-size="18" font-weight="700"
        fill="#4ec9b0" letter-spacing="0.2">Most Used Languages</text>

  
  <circle cx="32" cy="81" r="6" fill="#f1e05a"/>
  <text x="48" y="86"
        font-family="-apple-system,BlinkMacSystemFont,'Segoe UI',Helvetica,Arial,sans-serif" font-size="13" font-weight="600"
        fill="#b5cea8">JavaScript</text>
  <rect x="138" y="78" width="188" height="7"
        rx="4" fill="#1a3a1a"/>
  <rect x="138" y="78" width="123.5" height="7"
        rx="4" fill="#f1e05a" opacity="0.75"/>
  <text x="374" y="86"
        font-family="-apple-system,BlinkMacSystemFont,'Segoe UI',Helvetica,Arial,sans-serif" font-size="12" font-weight="600"
        fill="#b5cea8" text-anchor="end">65.7%</text>
  <circle cx="32" cy="127" r="6" fill="#5686a5"/>
  <text x="48" y="132"
        font-family="-apple-system,BlinkMacSystemFont,'Segoe UI',Helvetica,Arial,sans-serif" font-size="13" font-weight="600"
        fill="#b5cea8">GLSL</text>
  <rect x="138" y="124" width="188" height="7"
        rx="4" fill="#1a3a1a"/>
  <rect x="138" y="124" width="17.1" height="7"
        rx="4" fill="#5686a5" opacity="0.75"/>
  <text x="374" y="132"
        font-family="-apple-system,BlinkMacSystemFont,'Segoe UI',Helvetica,Arial,sans-serif" font-size="12" font-weight="600"
        fill="#b5cea8" text-anchor="end">9.1%</text>
  <circle cx="32" cy="173" r="6" fill="#3572A5"/>
  <text x="48" y="178"
        font-family="-apple-system,BlinkMacSystemFont,'Segoe UI',Helvetica,Arial,sans-serif" font-size="13" font-weight="600"
        fill="#b5cea8">Python</text>
  <rect x="138" y="170" width="188" height="7"
        rx="4" fill="#1a3a1a"/>
  <rect x="138" y="170" width="13.5" height="7"
        rx="4" fill="#3572A5" opacity="0.75"/>
  <text x="374" y="178"
        font-family="-apple-system,BlinkMacSystemFont,'Segoe UI',Helvetica,Arial,sans-serif" font-size="12" font-weight="600"
        fill="#b5cea8" text-anchor="end">7.2%</text>
  <circle cx="32" cy="219" r="6" fill="#563d7c"/>
  <text x="48" y="224"
        font-family="-apple-system,BlinkMacSystemFont,'Segoe UI',Helvetica,Arial,sans-serif" font-size="13" font-weight="600"
        fill="#b5cea8">CSS</text>
  <rect x="138" y="216" width="188" height="7"
        rx="4" fill="#1a3a1a"/>
  <rect x="138" y="216" width="12.8" height="7"
        rx="4" fill="#563d7c" opacity="0.75"/>
  <text x="374" y="224"
        font-family="-apple-system,BlinkMacSystemFont,'Segoe UI',Helvetica,Arial,sans-serif" font-size="12" font-weight="600"
        fill="#b5cea8" text-anchor="end">6.8%</text>
  <circle cx="32" cy="265" r="6" fill="#000080"/>
  <text x="48" y="270"
        font-family="-apple-system,BlinkMacSystemFont,'Segoe UI',Helvetica,Arial,sans-serif" font-size="13" font-weight="600"
        fill="#b5cea8">Lua</text>
  <rect x="138" y="262" width="188" height="7"
        rx="4" fill="#1a3a1a"/>
  <rect x="138" y="262" width="7.1" height="7"
        rx="4" fill="#000080" opacity="0.75"/>
  <text x="374" y="270"
        font-family="-apple-system,BlinkMacSystemFont,'Segoe UI',Helvetica,Arial,sans-serif" font-size="12" font-weight="600"
        fill="#b5cea8" text-anchor="end">3.8%</text>
  <circle cx="32" cy="311" r="6" fill="#f34b7d"/>
  <text x="48" y="316"
        font-family="-apple-system,BlinkMacSystemFont,'Segoe UI',Helvetica,Arial,sans-serif" font-size="13" font-weight="600"
        fill="#b5cea8">C++</text>
  <rect x="138" y="308" width="188" height="7"
        rx="4" fill="#1a3a1a"/>
  <rect x="138" y="308" width="7.0" height="7"
        rx="4" fill="#f34b7d" opacity="0.75"/>
  <text x="374" y="316"
        font-family="-apple-system,BlinkMacSystemFont,'Segoe UI',Helvetica,Arial,sans-serif" font-size="12" font-weight="600"
        fill="#b5cea8" text-anchor="end">3.7%</text>
  <circle cx="32" cy="357" r="6" fill="#89e051"/>
  <text x="48" y="362"
        font-family="-apple-system,BlinkMacSystemFont,'Segoe UI',Helvetica,Arial,sans-serif" font-size="13" font-weight="600"
        fill="#b5cea8">Shell</text>
  <rect x="138" y="354" width="188" height="7"
        rx="4" fill="#1a3a1a"/>
  <rect x="138" y="354" width="6" height="7"
        rx="4" fill="#89e051" opacity="0.75"/>
  <text x="374" y="362"
        font-family="-apple-system,BlinkMacSystemFont,'Segoe UI',Helvetica,Arial,sans-serif" font-size="12" font-weight="600"
        fill="#b5cea8" text-anchor="end">2.2%</text>
  <circle cx="32" cy="403" r="6" fill="#555555"/>
  <text x="48" y="408"
        font-family="-apple-system,BlinkMacSystemFont,'Segoe UI',Helvetica,Arial,sans-serif" font-size="13" font-weight="600"
        fill="#b5cea8">C</text>
  <rect x="138" y="400" width="188" height="7"
        rx="4" fill="#1a3a1a"/>
  <rect x="138" y="400" width="6" height="7"
        rx="4" fill="#555555" opacity="0.75"/>
  <text x="374" y="408"
        font-family="-apple-system,BlinkMacSystemFont,'Segoe UI',Helvetica,Arial,sans-serif" font-size="12" font-weight="600"
        fill="#b5cea8" text-anchor="end">1.4%</text>
</svg>